<?xml version="1.0" ?><svg viewBox="0 0 227.09 173.86" xmlns="http://www.w3.org/2000/svg" xmlns:xlink="http://www.w3.org/1999/xlink"><defs><style>
      .cls-1 {
        fill: none;
      }

      .cls-2 {
        isolation: isolate;
      }

      .cls-3 {
        fill: #91d5dc;
      }

      .cls-4 {
        fill: #c6c6c5;
      }

      .cls-5 {
        fill: #f89a20;
      }

      .cls-6 {
        fill: #fdba17;
      }

      .cls-7 {
        fill: #f04f4e;
      }

      .cls-8 {
        fill: #fff;
      }

      .cls-9 {
        fill: #ba2626;
      }

      .cls-10 {
        clip-path: url(#clip-path);
      }

      .cls-11 {
        mix-blend-mode: multiply;
      }

      .cls-12 {
        fill: #e1697b;
      }

      .cls-13 {
        fill: #e0e0e0;
      }

      .cls-14 {
        clip-path: url(#clip-path-2);
      }

      .cls-15 {
        fill: #f16667;
      }
    </style><clipPath id="clip-path"><path class="cls-1" d="M87.51,27.1V137c0,3,2.1,5.45,4.69,5.45h81c2.59,0,4.69-2.44,4.69-5.45V27.1Z"/></clipPath><clipPath id="clip-path-2"><circle class="cls-1" cx="177.86" cy="127.61" r="34.94"/></clipPath></defs><title/><g class="cls-2"><g data-name="Layer 2" id="Layer_2"><g id="рисунок"><g><circle class="cls-3" cx="111.81" cy="86.64" r="81.18"/><g><rect class="cls-4" height="62.27" transform="translate(-16.19 30.95) rotate(-36.26)" width="51.03" x="13.66" y="9.06"/><rect class="cls-5" height="13.44" transform="translate(-27.75 47.14) rotate(-36.26)" width="51.14" x="32.55" y="59.22"/><polygon class="cls-6" points="74.56 77.82 64.6 85.13 41.29 86.62 82.81 56.17 74.56 77.82"/><path class="cls-6" d="M113.13,125.89,75.21,74.2,60.78,84.79l37.91,51.69a6.37,6.37,0,0,0,8.9,1.37l4.17-3.06A6.37,6.37,0,0,0,113.13,125.89Zm-6.34,6.71a3.88,3.88,0,1,1,.83-5.42A3.87,3.87,0,0,1,106.79,132.6Z"/><rect class="cls-7" height="18.79" transform="translate(-15.12 29.46) rotate(-36.26)" width="51.03" x="11.91" y="28.43"/><path class="cls-8" d="M36.58,3.49,39.4,15.87a1.59,1.59,0,0,1-2.35,1.73l-11-6.41Z"/><path class="cls-9" d="M35,6.6,38.26,11a2.36,2.36,0,0,1-.5,3.29h0a2.36,2.36,0,0,1-3.29-.51L31.25,9.38A1.6,1.6,0,0,0,29,9L0,30.32,11.11,45.48l6.39-4.69a3.18,3.18,0,0,1,4.45.69l2.28,3.11A2.35,2.35,0,0,0,28,41.81L25.74,38.7a3.18,3.18,0,0,1,.68-4.45l25.85-19L41.15.14,35.38,4.37A1.6,1.6,0,0,0,35,6.6Z"/></g><g><path class="cls-7" d="M87.51,27.1V137c0,3,2.1,5.45,4.69,5.45h81c2.59,0,4.69-2.44,4.69-5.45V27.1Z"/><g class="cls-10"><g class="cls-11"><rect class="cls-12" height="130.03" width="86.34" x="140.75" y="21.73"/></g></g><rect class="cls-13" height="42.44" width="90.34" x="87.51" y="27.1"/><rect class="cls-4" height="23.99" width="90.34" x="87.51" y="27.1"/><path class="cls-8" d="M112,76.16H92.3c-5.92,0-10.7-3.3-13.12-9.06-3.31-7.89-1.85-20.79,7.35-30.17a3.5,3.5,0,1,1,5,4.9c-7,7.12-8.25,16.94-5.89,22.56,1.33,3.17,3.57,4.77,6.66,4.77H112a13.7,13.7,0,0,0,13.69-13.69V40.82a3.5,3.5,0,1,1,7,0V55.47A20.71,20.71,0,0,1,112,76.16Z"/><rect class="cls-4" height="18.93" width="11.63" x="87.51" y="32.16"/><path class="cls-8" d="M129.1,45.76a5.09,5.09,0,1,1,5.09-5.08A5.09,5.09,0,0,1,129.1,45.76Zm0-7.17a2.09,2.09,0,1,0,2.09,2.09A2.1,2.1,0,0,0,129.1,38.59Z"/><g><circle class="cls-13" cx="177.86" cy="127.61" r="44.27"/><circle class="cls-7" cx="177.86" cy="127.61" r="34.94"/><g class="cls-14"><rect class="cls-15" height="92.06" transform="translate(145.51 -88.26) rotate(45)" width="27.71" x="165.45" y="85.49"/><rect class="cls-15" height="92.06" transform="translate(126.72 -80.48) rotate(45)" width="10.24" x="155.39" y="66.7"/></g></g></g></g></g></g></g></svg>