<?xml version="1.0" ?><svg viewBox="0 0 166.61 171.71" xmlns="http://www.w3.org/2000/svg" xmlns:xlink="http://www.w3.org/1999/xlink"><defs><style>
      .cls-1 {
        fill: none;
      }

      .cls-2 {
        isolation: isolate;
      }

      .cls-3 {
        fill: #6db744;
      }

      .cls-4 {
        fill: #81b040;
      }

      .cls-5 {
        clip-path: url(#clip-path);
      }

      .cls-6 {
        fill: #66923e;
      }

      .cls-7 {
        fill: #018a8f;
      }

      .cls-8 {
        fill: #fdba17;
      }

      .cls-9 {
        fill: #e0e0e0;
      }

      .cls-10 {
        fill: #ef364a;
      }

      .cls-11 {
        mix-blend-mode: multiply;
      }

      .cls-12 {
        fill: #c5dddc;
      }

      .cls-13 {
        fill: #b1d464;
      }

      .cls-14 {
        fill: #b7b7b7;
      }

      .cls-15 {
        fill: #2e4256;
      }

      .cls-16 {
        fill: #57bec3;
      }
    </style><clipPath id="clip-path" transform="translate(0 -1.66)"><circle class="cls-1" cx="81.18" cy="82.83" r="81.18"/></clipPath></defs><title/><g class="cls-2"><g data-name="Layer 2" id="Layer_2"><g id="рисунок"><g><circle class="cls-3" cx="81.18" cy="81.18" r="81.18"/><rect class="cls-4" height="2.95" width="30.73" x="42.2" y="115.17"/><g class="cls-5"><rect class="cls-6" height="39.91" width="151.33" x="15.28" y="131.8"/><g><rect class="cls-7" height="2.95" width="30.73" x="131.63" y="115.17"/><rect class="cls-8" height="64.95" width="30.73" x="131.63" y="66.84"/><rect class="cls-9" height="2.95" width="30.73" x="131.63" y="66.84"/><circle class="cls-10" cx="146.99" cy="87.84" r="8.19"/><rect class="cls-10" height="29.52" width="28.05" x="133.11" y="37.32"/><g class="cls-11"><rect class="cls-12" height="29.52" width="7.84" x="153.31" y="37.32"/></g></g></g><circle class="cls-13" cx="60.18" cy="61.09" r="39.88"/><circle class="cls-13" cx="94.09" cy="32.92" r="18.38"/><rect class="cls-8" height="64.95" width="30.73" x="42.2" y="66.84"/><rect class="cls-14" height="2.95" width="30.73" x="42.2" y="66.84"/><circle class="cls-4" cx="57.56" cy="87.84" r="8.19"/><rect class="cls-9" height="13.37" width="21.94" x="46.59" y="53.48"/><rect class="cls-14" height="4.73" width="2.88" x="56.13" y="48.75"/><rect class="cls-9" height="11.63" width="8.86" x="53.13" y="37.41"/><circle class="cls-15" cx="57.56" cy="43.23" r="2.17"/><g><rect class="cls-7" height="2.95" width="30.73" x="86.48" y="115.17"/><rect class="cls-8" height="64.95" width="30.73" x="86.48" y="66.84"/><rect class="cls-9" height="2.95" width="30.73" x="86.48" y="66.84"/><circle class="cls-7" cx="101.85" cy="87.84" r="8.19"/><rect class="cls-16" height="29.52" width="28.05" x="87.96" y="37.32"/><g class="cls-11"><rect class="cls-12" height="29.52" width="7.84" x="108.16" y="37.32"/></g></g></g></g></g></g></svg>